<svg xmlns="http://www.w3.org/2000/svg" xmlns:xlink="http://www.w3.org/1999/xlink" id="svg602" width="210mm" height="297mm" xml:space="preserve"><rect id="rect605" width="72" height="72" x="208.022" y="208.403" fill="#e8a221" fill-opacity=".849" fill-rule="evenodd" stroke="#000" stroke-dasharray="none" stroke-opacity="1" stroke-width="2.5" font-size="12" rx="0"/><rect id="rect606" width="72" height="24" x="263.331" y="232.403" fill="#e8a221" fill-opacity=".849" fill-rule="evenodd" stroke="#000" stroke-dasharray="none" stroke-opacity="1" stroke-width="2.5" font-size="12" rx="0"/><rect id="rect607" width="72" height="72" x="184.815" y="314.235" fill="#988035" fill-opacity=".667" fill-rule="evenodd" stroke="#000" stroke-dasharray="none" stroke-opacity="1" stroke-width="2.5" font-size="12" rx="0"/><rect id="rect608" width="72" height="72" x="286.539" y="314.235" fill="#4080ae" fill-opacity=".667" fill-rule="evenodd" stroke="#000" stroke-dasharray="none" stroke-opacity="1" stroke-width="2.5" font-size="12" rx="0"/><path id="path609" fill="none" fill-opacity="1" fill-rule="evenodd" stroke="#000" stroke-dasharray="none" stroke-linecap="butt" stroke-linejoin="miter" stroke-opacity="1" stroke-width="2.5" d="M 220.45 313.7408 C 220.116 306.9225 222.9378 303.2895 228.7714 300.5386 C 235.8445 297.2031 240.6618 297.5987 243.4797 289.5518 C 243.9393 287.3213 244.2033 285.9382 244.2033 283.6683"/><path id="path610" fill="none" fill-opacity="1" fill-rule="evenodd" stroke="#000" stroke-dasharray="none" stroke-linecap="butt" stroke-linejoin="miter" stroke-opacity="1" stroke-width="2.5" d="M 299.498 256.3851 C 298.8383 259.7352 299.2553 265.2901 304.8263 268.7334 C 316.3843 275.2921 326.5193 274.7951 331.7357 285.5089 C 334.8175 295.6103 322.4448 304.1879 323.9951 310.0142"/><path id="path616" fill="none" fill-opacity="1" fill-rule="evenodd" stroke="#000" stroke-dasharray="none" stroke-linecap="butt" stroke-linejoin="miter" stroke-opacity="1" stroke-width="2.5" d="M 245.634 283.9141 L 244.2235 279.5995 L 242.768 283.9516 L 245.634 283.9141 z"/><path id="path617" fill="none" fill-opacity="1" fill-rule="evenodd" stroke="#000" stroke-dasharray="none" stroke-linecap="butt" stroke-linejoin="miter" stroke-opacity="1" stroke-width="2.5" d="M 322.4082 309.8383 L 323.8187 314.1529 L 325.2742 309.8008 L 322.4082 309.8383 z"/></svg>